<svg version="1.1" width="53.1963" height="53.154" xmlns="http://www.w3.org/2000/svg" xmlns:xlink="http://www.w3.org/1999/xlink" id="svg8450" overflow="hidden"><defs id="defs8454"><clipPath id="clipPath5855"><path d=" M 153.734 765.154 C 152.569 766.975 148.896 772.081 148.672 772.392 C 148.313 772.925 147.776 773.28 147.149 773.369 C 146.477 773.502 145.76 773.325 145.177 772.925 C 144.013 772.126 143.654 770.571 144.416 769.461 L 145.267 767.818 L 140.922 769.55 L 136.218 779.186 L 138.861 777.854 C 140.294 776.966 142.131 777.41 143.027 778.831 C 143.475 779.497 143.609 780.341 143.43 781.096 C 143.251 781.895 142.759 782.561 142.086 783.005 C 141.683 783.271 134.739 787.89 132.275 789.399 C 129.184 791.264 125.241 791.398 121.747 789.755 C 118.969 788.467 116.864 786.202 115.789 783.405 C 114.713 780.607 114.803 777.543 115.968 774.79 L 115.968 774.79 L 121.523 762.978 C 122.061 761.868 123.136 761.247 124.301 761.247 C 124.749 761.247 125.152 761.335 125.6 761.513 C 126.182 761.779 126.63 762.179 126.899 762.667 L 127.616 761.158 C 127.974 760.403 128.557 759.87 129.363 759.604 C 129.722 759.471 130.035 759.426 130.393 759.426 C 130.797 759.426 131.155 759.515 131.558 759.648 L 132.096 759.471 C 131.782 759.204 131.513 758.893 131.334 758.493 C 131.021 757.828 131.021 757.161 131.289 756.495 C 131.558 755.874 132.006 755.429 132.634 755.207 L 141.997 751.566 L 141.997 751.566 C 142.982 751.211 144.013 751.033 144.998 751.033 C 148.717 751.033 152.346 753.254 154.003 756.85 C 155.347 759.692 155.213 762.8 153.734 765.154 Z M 129.811 760.891 C 129.408 761.024 129.049 761.335 128.87 761.735 L 127.123 765.42 C 127.123 765.465 127.078 765.509 127.078 765.509 L 123.36 773.325 C 123.181 773.68 122.777 773.813 122.464 773.635 C 122.105 773.458 121.971 773.058 122.15 772.747 L 125.869 764.932 C 126.272 764.088 125.913 763.111 125.062 762.711 C 124.211 762.312 123.225 762.667 122.822 763.511 L 117.222 775.323 C 115.027 780.385 117.267 786.158 122.285 788.511 C 125.376 789.932 128.825 789.843 131.558 788.2 C 134.022 786.735 141.28 781.895 141.325 781.85 L 141.325 781.85 C 141.728 781.628 141.952 781.229 142.086 780.785 C 142.176 780.341 142.086 779.897 141.862 779.497 C 141.638 779.097 141.235 778.875 140.787 778.742 C 140.339 778.653 139.891 778.742 139.488 778.964 C 139.488 778.964 139.443 778.964 139.443 779.008 L 134.56 781.495 C 134.336 781.628 134.067 781.584 133.843 781.451 C 131.379 779.719 127.392 780.03 125.331 782.072 C 125.062 782.339 124.614 782.339 124.345 782.072 C 124.077 781.806 124.077 781.362 124.345 781.096 C 126.765 778.698 131.155 778.254 134.201 780.03 L 138.905 770.261 L 137.337 771.016 C 136.576 771.326 135.769 771.193 135.052 770.794 L 132.947 775.234 C 132.768 775.589 132.364 775.722 132.051 775.545 C 131.692 775.367 131.558 774.968 131.737 774.657 L 134.067 769.772 C 134.022 769.728 134.022 769.683 133.977 769.594 C 133.798 769.195 133.708 768.795 133.753 768.351 L 133.081 768.618 C 132.364 768.884 131.603 768.84 130.931 768.484 L 129.452 771.593 C 129.273 771.948 128.87 772.081 128.556 771.904 C 128.198 771.726 128.064 771.326 128.243 771.016 L 129.9 767.508 C 129.856 767.419 129.811 767.33 129.766 767.197 C 129.452 766.531 129.452 765.865 129.721 765.198 C 129.945 764.71 130.303 764.31 130.752 764.044 C 130.438 763.777 130.169 763.467 129.99 763.067 C 129.676 762.401 129.676 761.735 129.945 761.068 C 129.99 760.98 130.035 760.891 130.08 760.802 C 129.945 760.847 129.901 760.891 129.811 760.891 Z M 152.793 757.428 C 150.957 753.475 146.432 751.433 142.489 752.809 L 133.126 756.451 C 132.857 756.539 132.678 756.761 132.544 757.028 C 132.409 757.294 132.454 757.649 132.589 757.96 C 132.858 758.582 133.619 758.893 134.201 758.671 L 140.429 756.229 C 140.787 756.095 141.19 756.273 141.325 756.628 C 141.459 756.984 141.28 757.383 140.921 757.516 L 134.694 759.914 L 134.605 759.959 C 134.605 759.959 131.558 761.158 131.468 761.202 C 131.289 761.291 131.2 761.469 131.11 761.646 C 130.976 761.913 131.02 762.268 131.155 762.579 C 131.289 762.934 131.603 763.156 131.916 763.289 C 132.185 763.378 138.995 760.847 138.995 760.847 C 139.353 760.714 139.756 760.891 139.891 761.247 C 140.025 761.602 139.846 762.001 139.488 762.135 L 131.468 765.243 C 131.199 765.332 131.02 765.554 130.886 765.82 C 130.752 766.087 130.796 766.442 130.931 766.753 C 131.065 767.019 131.244 767.197 131.468 767.375 C 131.782 767.552 132.185 767.641 132.544 767.508 L 141.862 763.867 C 142.22 763.733 142.624 763.911 142.758 764.266 C 142.892 764.622 142.713 765.021 142.355 765.154 L 135.814 767.729 L 135.814 767.729 C 135.501 767.863 135.277 768.085 135.187 768.351 C 135.053 768.618 135.097 768.929 135.187 769.195 C 135.277 769.417 135.456 769.594 135.635 769.728 C 135.994 769.994 136.442 770.083 136.8 769.905 L 146.432 765.909 C 146.701 765.82 147.014 765.865 147.194 766.086 C 147.373 766.308 147.418 766.619 147.283 766.841 C 147.283 766.841 145.491 770.172 145.491 770.216 C 145.133 770.749 145.312 771.46 145.895 771.859 C 146.163 772.037 146.522 772.126 146.835 772.081 C 147.104 772.037 147.328 771.859 147.507 771.637 L 147.507 771.637 C 147.552 771.593 151.36 766.264 152.525 764.443 C 153.824 762.49 153.913 759.87 152.793 757.428 Z" id="path5853" clip-rule="evenodd"/></clipPath><clipPath id="clipPath5861"><path d=" M 0 0 L 1280 0 L 1280 1487 L 0 1487 Z" id="path5859"/></clipPath></defs><g id="g5849" transform="matrix(1.33333,0,0,-1.33333,-153.38,1054.53)"><g id="g5851" clip-path="url(#clipPath5855)"><g id="g5857" clip-path="url(#clipPath5861)"><path d=" M 110.035 746.033 L 159.932 746.033 L 159.932 795.899 L 110.035 795.899 Z" id="path5863" stroke="none" fill="#F8AC32" fill-rule="nonzero" fill-opacity="1"/></g></g></g></svg>