<svg version="1.1" width="23.3333" height="23.3333" xmlns="http://www.w3.org/2000/svg" xmlns:xlink="http://www.w3.org/1999/xlink" id="svg8351" overflow="hidden"><defs id="defs8355"><clipPath id="clipPath5855"><path d=" M 805.5 958 C 806.881 958 808 959.119 808 960.5 C 808 961.881 806.881 963 805.5 963 C 804.119 963 803 961.881 803 960.5 C 803 959.119 804.119 958 805.5 958 Z" id="path5853" clip-rule="evenodd"/></clipPath><clipPath id="clipPath5861"><path d=" M 0 0 L 1280 0 L 1280 1384 L 0 1384 Z" id="path5859"/></clipPath></defs><path d=" M 11.6667 23 C 17.9259 23 23 17.9259 23 11.6667 C 23 5.40744 17.9259 0.333333 11.6667 0.333333 C 5.40744 0.333333 0.333333 5.40744 0.333333 11.6667 C 0.333333 17.9259 5.40744 23 11.6667 23 Z" id="path5843" stroke="#212B51" stroke-width="0.666667" stroke-linecap="butt" stroke-linejoin="miter" stroke-miterlimit="10" stroke-dasharray="" stroke-opacity="1" fill="none"/><g id="g5849" transform="matrix(1.33333,0,0,-1.33333,-1062.33,1292.33)"><g id="g5851" clip-path="url(#clipPath5855)"><g id="g5857" clip-path="url(#clipPath5861)"><path d=" M 798 953 L 813 953 L 813 968 L 798 968 Z" id="path5863" stroke="none" fill="#F8AC32" fill-rule="nonzero" fill-opacity="1"/></g></g></g></svg>