<svg version="1.1" width="38.6447" height="43.5551" xmlns="http://www.w3.org/2000/svg" xmlns:xlink="http://www.w3.org/1999/xlink" id="svg8392" overflow="hidden"><defs id="defs8396"><clipPath id="clipPath5701"><path d=" M 130.492 833.318 C 129.897 833.318 129.413 832.846 129.413 832.267 L 129.413 828.224 C 129.413 827.645 129.897 827.173 130.492 827.173 C 131.087 827.173 131.571 827.645 131.571 828.224 L 131.571 832.267 C 131.571 832.846 131.087 833.318 130.492 833.318 M 130.492 825.232 C 128.797 825.232 127.419 826.574 127.419 828.224 L 127.419 832.267 C 127.419 833.917 128.797 835.259 130.492 835.259 C 132.186 835.259 133.565 833.917 133.565 832.267 L 133.565 828.224 C 133.565 826.574 132.186 825.232 130.492 825.232" id="path5699" clip-rule="evenodd"/></clipPath><clipPath id="clipPath5707"><path d=" M 0 0 L 1280 0 L 1280 1487 L 0 1487 Z" id="path5705"/></clipPath><clipPath id="clipPath5659"><path d=" M 140.829 850.823 L 120.156 850.823 L 120.156 841.281 L 140.829 841.281 Z" id="path5657" clip-rule="evenodd"/></clipPath><clipPath id="clipPath5665"><path d=" M 0 0 L 1280 0 L 1280 1487 L 0 1487 Z" id="path5663"/></clipPath><clipPath id="clipPath5671"><path d=" M 120 841 L 141 841 L 141 851 L 120 851 Z" id="path5669"/></clipPath><clipPath id="clipPath5675"><path d=" M 122.143 841.281 L 120.156 841.445 C 120.623 846.792 125.067 850.824 130.492 850.824 C 135.943 850.824 140.484 846.695 140.829 841.425 L 138.84 841.301 C 138.561 845.552 134.894 848.883 130.492 848.883 C 126.111 848.883 122.521 845.614 122.143 841.281" id="path5673" clip-rule="evenodd"/></clipPath><clipPath id="clipPath5679"><path d=" M 120 841 L 141 841 L 141 851 L 120 851 Z" id="path5677"/></clipPath><clipPath id="clipPath5617"><path d=" M 130.492 818.157 L 144.984 818.157 L 144.984 842.334 L 116 842.334 L 116 818.157 Z" id="path5615" clip-rule="evenodd"/></clipPath><clipPath id="clipPath5623"><path d=" M 0 0 L 1280 0 L 1280 1487 L 0 1487 Z" id="path5621"/></clipPath><clipPath id="clipPath5629"><path d=" M 116 818 L 145 818 L 145 843 L 116 843 Z" id="path5627"/></clipPath><clipPath id="clipPath5633"><path d=" M 121.149 840.393 C 119.409 840.393 117.994 839.014 117.994 837.32 L 117.994 823.171 C 117.994 821.477 119.409 820.098 121.149 820.098 L 139.835 820.098 C 141.574 820.098 142.99 821.477 142.99 823.171 L 142.99 837.32 C 142.99 839.014 141.574 840.393 139.835 840.393 Z M 139.835 818.157 L 121.149 818.157 C 118.31 818.157 116 820.406 116 823.171 L 116 837.32 C 116 840.085 118.31 842.334 121.149 842.334 L 139.835 842.334 C 142.674 842.334 144.984 840.085 144.984 837.32 L 144.984 823.171 C 144.984 820.406 142.674 818.157 139.835 818.157 Z" id="path5631" clip-rule="evenodd"/></clipPath><clipPath id="clipPath5637"><path d=" M 116 818 L 145 818 L 145 843 L 116 843 Z" id="path5635"/></clipPath></defs><g id="g5611" transform="matrix(1.33333,0,0,-1.33333,-154.667,1134.43)"><g id="g5613" clip-path="url(#clipPath5617)"><g id="g5619" clip-path="url(#clipPath5623)"><g id="g5625"></g><g id="g5651"><g id="g5649" clip-path="url(#clipPath5629)"><g id="g5639"></g><g id="g5647"><g id="g5645" clip-path="url(#clipPath5633)"><g id="g5643" clip-path="url(#clipPath5637)"><path d=" M 111 813.157 L 149.984 813.157 L 149.984 847.334 L 111 847.334 Z" id="path5641" stroke="none" fill="#F8AC32" fill-rule="nonzero" fill-opacity="1"/></g></g></g></g></g></g></g></g><g id="g5653" transform="matrix(1.33333,0,0,-1.33333,-154.667,1134.43)"><g id="g5655" clip-path="url(#clipPath5659)"><g id="g5661" clip-path="url(#clipPath5665)"><g id="g5667"></g><g id="g5693"><g id="g5691" clip-path="url(#clipPath5671)"><g id="g5681"></g><g id="g5689"><g id="g5687" clip-path="url(#clipPath5675)"><g id="g5685" clip-path="url(#clipPath5679)"><path d=" M 115.156 836.281 L 145.83 836.281 L 145.83 855.824 L 115.156 855.824 Z" id="path5683" stroke="none" fill="#F8AC32" fill-rule="nonzero" fill-opacity="1"/></g></g></g></g></g></g></g></g><g id="g5695" transform="matrix(1.33333,0,0,-1.33333,-154.667,1134.43)"><g id="g5697" clip-path="url(#clipPath5701)"><g id="g5703" clip-path="url(#clipPath5707)"><path d=" M 122.419 820.232 L 138.565 820.232 L 138.565 840.259 L 122.419 840.259 Z" id="path5709" stroke="none" fill="#F8AC32" fill-rule="nonzero" fill-opacity="1"/></g></g></g></svg>