<svg version="1.1" width="39.342" height="40.4393" xmlns="http://www.w3.org/2000/svg" xmlns:xlink="http://www.w3.org/1999/xlink" id="svg8466" overflow="hidden"><defs id="defs8470"><clipPath id="clipPath5813"><path d=" M 130.478 695.522 L 145.507 695.522 L 145.507 725.851 L 130.478 725.851 Z" id="path5811" clip-rule="evenodd"/></clipPath><clipPath id="clipPath5819"><path d=" M 0 0 L 1280 0 L 1280 1487 L 0 1487 Z" id="path5817"/></clipPath><clipPath id="clipPath5825"><path d=" M 130 695 L 146 695 L 146 726 L 130 726 Z" id="path5823"/></clipPath><clipPath id="clipPath5829"><path d=" M 145.507 699.641 L 145.507 721.733 C 145.507 724.007 143.623 725.851 141.3 725.851 L 134.685 725.851 C 132.361 725.851 130.478 724.007 130.478 721.733 L 130.478 716.678 C 130.478 716.057 130.992 715.554 131.625 715.554 C 132.259 715.554 132.773 716.057 132.773 716.678 L 132.773 721.733 C 132.773 722.767 133.629 723.605 134.685 723.605 L 141.3 723.605 C 142.356 723.605 143.212 722.767 143.212 721.733 L 143.212 699.641 C 143.212 698.607 142.356 697.769 141.3 697.769 L 134.685 697.769 C 133.629 697.769 132.773 698.607 132.773 699.641 L 132.773 704.696 C 132.773 705.316 132.259 705.819 131.625 705.819 C 130.992 705.819 130.478 705.316 130.478 704.696 L 130.478 699.641 C 130.478 697.366 132.361 695.522 134.685 695.522 L 141.3 695.522 C 143.623 695.522 145.507 697.366 145.507 699.641" id="path5827" clip-rule="evenodd"/></clipPath><clipPath id="clipPath5833"><path d=" M 130 695 L 146 695 L 146 726 L 130 726 Z" id="path5831"/></clipPath><clipPath id="clipPath5797"><path d=" M 116.214 709.9 L 123.327 702.973 C 123.392 702.888 123.47 702.813 123.557 702.749 C 124.064 702.376 124.783 702.477 125.163 702.973 C 125.543 703.47 125.44 704.174 124.933 704.546 L 119.809 709.563 L 139.006 709.563 C 139.639 709.563 140.153 710.066 140.153 710.687 C 140.153 711.307 139.639 711.81 139.006 711.81 L 119.809 711.81 L 124.933 716.865 C 125.239 717.264 125.239 717.813 124.933 718.213 C 124.553 718.709 123.834 718.81 123.327 718.438 L 116.253 711.51 L 116.1 711.323 L 116.1 711.248 L 116.023 711.136 L 116.023 710.911 C 115.992 710.763 115.992 710.61 116.023 710.462 L 116.023 710.237 L 116.1 710.125 L 116.1 710.05 Z" id="path5795" clip-rule="evenodd"/></clipPath><clipPath id="clipPath5803"><path d=" M 0 0 L 1280 0 L 1280 1487 L 0 1487 Z" id="path5801"/></clipPath></defs><g id="g5791" transform="matrix(1.33333,0,0,-1.33333,-154.667,967.802)"><g id="g5793" clip-path="url(#clipPath5797)"><g id="g5799" clip-path="url(#clipPath5803)"><path d=" M 111 697.524 L 145.153 697.524 L 145.153 723.662 L 111 723.662 Z" id="path5805" stroke="none" fill="#F8AC32" fill-rule="nonzero" fill-opacity="1"/></g></g></g><g id="g5807" transform="matrix(1.33333,0,0,-1.33333,-154.667,967.802)"><g id="g5809" clip-path="url(#clipPath5813)"><g id="g5815" clip-path="url(#clipPath5819)"><g id="g5821"></g><g id="g5847"><g id="g5845" clip-path="url(#clipPath5825)"><g id="g5835"></g><g id="g5843"><g id="g5841" clip-path="url(#clipPath5829)"><g id="g5839" clip-path="url(#clipPath5833)"><path d=" M 125.478 690.522 L 150.507 690.522 L 150.507 730.851 L 125.478 730.851 Z" id="path5837" stroke="none" fill="#F8AC32" fill-rule="nonzero" fill-opacity="1"/></g></g></g></g></g></g></g></g></svg>