<svg version="1.1" width="38.6349" height="41.2992" xmlns="http://www.w3.org/2000/svg" xmlns:xlink="http://www.w3.org/1999/xlink" id="svg8363" overflow="hidden"><defs id="defs8367"><clipPath id="clipPath5533"><path d=" M 144.976 912 L 116 912 L 116 881.026 L 144.976 881.026 Z" id="path5531" clip-rule="evenodd"/></clipPath><clipPath id="clipPath5539"><path d=" M 0 0 L 1280 0 L 1280 1487 L 0 1487 Z" id="path5537"/></clipPath><clipPath id="clipPath5545"><path d=" M 116 881 L 145 881 L 145 912 L 116 912 Z" id="path5543"/></clipPath><clipPath id="clipPath5549"><path d=" M 135.247 900.766 C 134.417 900.766 133.745 900.067 133.745 899.204 C 133.745 898.341 134.417 897.641 135.247 897.641 C 136.077 897.641 136.75 898.341 136.75 899.204 C 136.749 900.068 136.077 900.766 135.247 900.766 M 130.699 900.766 C 129.869 900.766 129.196 900.067 129.196 899.204 C 129.196 898.341 129.869 897.641 130.699 897.641 C 131.529 897.641 132.202 898.341 132.202 899.204 C 132.202 900.068 131.529 900.766 130.699 900.766 M 126.151 900.766 C 125.321 900.766 124.648 900.067 124.648 899.204 C 124.648 898.341 125.321 897.641 126.151 897.641 C 126.981 897.641 127.654 898.341 127.654 899.204 C 127.654 900.068 126.981 900.766 126.151 900.766 M 130.49 910.006 C 123.558 910.006 117.919 905.115 117.919 899.103 C 117.919 893.752 122.332 889.231 128.41 888.351 C 128.884 888.283 129.237 887.861 129.237 887.363 L 129.237 885.078 L 131.194 887.863 C 131.356 888.094 131.606 888.241 131.881 888.267 C 138.253 888.877 143.06 893.535 143.06 899.102 C 143.059 905.115 137.421 910.006 130.49 910.006 M 128.278 881.026 C 128.179 881.026 128.078 881.041 127.98 881.075 C 127.586 881.209 127.318 881.591 127.318 882.023 L 127.318 886.518 C 120.712 887.82 116 892.999 116 899.103 C 116 906.215 122.499 912 130.488 912 C 138.476 912 144.976 906.215 144.976 899.103 C 144.976 892.629 139.638 887.206 132.49 886.33 L 129.051 881.434 C 128.869 881.172 128.578 881.026 128.278 881.026" id="path5547" clip-rule="evenodd"/></clipPath><clipPath id="clipPath5553"><path d=" M 116 881 L 145 881 L 145 912 L 116 912 Z" id="path5551"/></clipPath></defs><g id="g5527" transform="matrix(1.33333,0,0,-1.33333,-154.667,1216)"><g id="g5529" clip-path="url(#clipPath5533)"><g id="g5535" clip-path="url(#clipPath5539)"><g id="g5541"></g><g id="g5567"><g id="g5565" clip-path="url(#clipPath5545)"><g id="g5555"></g><g id="g5563"><g id="g5561" clip-path="url(#clipPath5549)"><g id="g5559" clip-path="url(#clipPath5553)"><path d=" M 111 876.026 L 149.976 876.026 L 149.976 917 L 111 917 Z" id="path5557" stroke="none" fill="#F8AC32" fill-rule="nonzero" fill-opacity="1"/></g></g></g></g></g></g></g></g></svg>