<svg version="1.1" width="53.1693" height="51.8107" xmlns="http://www.w3.org/2000/svg" xmlns:xlink="http://www.w3.org/1999/xlink" id="svg8286" overflow="hidden"><defs id="defs8290"><clipPath id="clipPath5375"><path d=" M 155.878 1040 L 155.878 1001.13 L 116 1001.13 L 116 1040 Z" id="path5373" clip-rule="evenodd"/></clipPath><clipPath id="clipPath5381"><path d=" M 0 0 L 1280 0 L 1280 1487 L 0 1487 Z" id="path5379"/></clipPath><clipPath id="clipPath5387"><path d=" M 115 1001 L 156 1001 L 156 1040 L 115 1040 Z" id="path5385"/></clipPath><clipPath id="clipPath5391"><path d=" M 152.047 1007.83 L 152.047 1007.83 C 151.97 1007.83 151.894 1007.81 151.823 1007.78 L 147.753 1006.08 C 147.434 1005.94 147.283 1005.57 147.416 1005.25 C 147.548 1004.93 147.913 1004.78 148.232 1004.91 L 152.303 1006.62 C 152.621 1006.75 152.774 1007.12 152.644 1007.44 C 152.546 1007.68 152.307 1007.84 152.047 1007.83 L 152.047 1007.83 Z M 150.379 1009.71 C 150.302 1009.71 150.226 1009.69 150.155 1009.66 L 147.748 1008.62 C 147.432 1008.48 147.285 1008.11 147.42 1007.79 C 147.556 1007.47 147.922 1007.33 148.238 1007.46 L 148.239 1007.46 L 150.646 1008.51 C 150.964 1008.64 151.113 1009.01 150.981 1009.33 C 150.88 1009.57 150.64 1009.72 150.379 1009.71 Z M 135.317 1017.53 L 135.317 1006.36 L 126.912 1002.72 L 126.912 1013.89 Z M 154.617 1017.53 L 154.617 1006.35 L 146.211 1002.72 L 146.211 1013.89 Z M 136.562 1017.53 L 138.619 1016.64 L 138.619 1011.37 C 138.62 1011.03 138.9 1010.75 139.243 1010.75 C 139.34 1010.75 139.435 1010.77 139.521 1010.82 L 140.679 1011.4 L 141.992 1009.41 C 142.151 1009.1 142.528 1008.98 142.832 1009.14 C 142.989 1009.22 143.104 1009.37 143.147 1009.54 C 143.151 1009.56 143.154 1009.57 143.157 1009.58 C 143.158 1009.59 143.159 1009.59 143.159 1009.6 C 143.162 1009.62 143.165 1009.64 143.166 1009.66 L 143.166 1009.66 C 143.167 1009.68 143.167 1009.71 143.166 1009.73 L 143.166 1014.66 L 144.965 1013.88 L 144.965 1002.71 L 136.561 1006.35 L 136.561 1017.52 Z M 117.261 1017.53 L 119.318 1016.64 L 119.318 1011.37 C 119.319 1011.03 119.599 1010.75 119.942 1010.75 C 120.039 1010.75 120.134 1010.77 120.22 1010.82 L 121.38 1011.4 L 122.725 1009.35 C 122.914 1009.07 123.3 1008.99 123.587 1009.17 C 123.763 1009.29 123.869 1009.49 123.868 1009.7 L 123.868 1014.67 L 125.667 1013.89 L 125.667 1002.72 L 117.261 1006.35 Z M 152.169 1019.13 L 153.667 1018.48 L 145.591 1014.98 L 144.093 1015.63 Z M 132.868 1019.13 L 134.366 1018.48 L 126.29 1014.98 L 124.795 1015.63 Z M 148.665 1020.64 L 150.595 1019.81 L 142.298 1016.22 C 142.057 1016.11 141.906 1015.87 141.921 1015.61 C 141.921 1015.59 141.921 1015.57 141.921 1015.55 L 141.921 1011.78 L 141.411 1012.56 C 141.236 1012.82 140.894 1012.91 140.613 1012.77 L 139.864 1012.39 L 139.864 1016.84 Z M 129.364 1020.64 L 131.292 1019.81 L 122.997 1016.22 C 122.752 1016.11 122.601 1015.86 122.623 1015.59 C 122.622 1015.58 122.622 1015.57 122.623 1015.55 L 122.623 1011.78 L 122.112 1012.56 C 121.938 1012.82 121.596 1012.91 121.315 1012.77 L 120.563 1012.39 L 120.563 1016.84 Z M 145.601 1021.97 L 147.086 1021.33 L 139.008 1017.83 L 137.522 1018.47 Z M 126.287 1021.97 L 127.785 1021.32 L 119.707 1017.82 L 118.212 1018.47 Z M 144.978 1034.23 L 144.978 1023.07 L 136.571 1019.43 L 136.571 1030.59 Z M 126.922 1034.23 L 128.98 1033.34 L 128.98 1028.08 C 128.979 1027.73 129.258 1027.45 129.601 1027.45 C 129.699 1027.45 129.795 1027.48 129.882 1027.52 L 131.039 1028.11 L 132.347 1026.12 C 132.501 1025.81 132.875 1025.69 133.182 1025.84 C 133.362 1025.93 133.488 1026.1 133.52 1026.3 C 133.52 1026.3 133.521 1026.31 133.521 1026.31 C 133.525 1026.33 133.525 1026.35 133.527 1026.37 L 133.527 1026.38 C 133.527 1026.4 133.527 1026.42 133.527 1026.44 L 133.527 1031.38 L 135.326 1030.59 L 135.326 1019.42 L 126.922 1023.06 L 126.922 1034.23 Z M 142.529 1035.83 L 144.025 1035.19 L 135.949 1031.69 L 134.451 1032.34 Z M 139.023 1037.35 L 140.953 1036.52 L 132.659 1032.92 C 132.357 1032.81 132.194 1032.48 132.282 1032.17 L 132.282 1028.49 L 131.771 1029.26 C 131.597 1029.53 131.255 1029.62 130.973 1029.48 L 130.225 1029.1 L 130.225 1033.54 Z M 135.949 1038.68 L 137.447 1038.03 L 129.369 1034.54 L 127.875 1035.18 Z M 135.93 1039.99 C 135.926 1039.99 135.921 1039.99 135.917 1039.99 C 135.885 1039.99 135.854 1039.98 135.822 1039.98 C 135.813 1039.98 135.803 1039.98 135.793 1039.98 C 135.788 1039.98 135.783 1039.98 135.779 1039.97 C 135.764 1039.97 135.749 1039.96 135.735 1039.96 C 135.73 1039.96 135.725 1039.96 135.72 1039.95 C 135.712 1039.95 135.704 1039.94 135.696 1039.93 C 135.685 1039.93 135.675 1039.92 135.664 1039.92 L 126.19 1035.82 C 125.913 1035.77 125.704 1035.54 125.68 1035.26 C 125.679 1035.25 125.678 1035.25 125.678 1035.24 L 125.678 1035.24 C 125.674 1035.2 125.674 1035.16 125.678 1035.12 L 125.678 1023.07 L 116.532 1019.11 C 116.364 1019.08 116.215 1018.98 116.121 1018.84 C 116.117 1018.84 116.114 1018.83 116.111 1018.83 C 116.11 1018.83 116.109 1018.83 116.109 1018.83 C 116.108 1018.83 116.107 1018.83 116.107 1018.83 C 116.011 1018.68 115.978 1018.51 116.017 1018.34 L 116.017 1005.96 L 116.017 1005.95 L 116.017 1005.93 C 116.017 1005.92 116.018 1005.9 116.019 1005.89 C 116.037 1005.65 116.186 1005.45 116.403 1005.36 L 125.924 1001.24 C 126.031 1001.16 126.158 1001.13 126.288 1001.13 C 126.418 1001.13 126.546 1001.16 126.653 1001.24 L 135.94 1005.25 L 145.225 1001.24 C 145.332 1001.16 145.459 1001.13 145.589 1001.13 C 145.719 1001.13 145.846 1001.16 145.954 1001.24 L 155.477 1005.36 C 155.725 1005.46 155.881 1005.71 155.863 1005.98 L 155.863 1018.33 C 155.903 1018.51 155.865 1018.7 155.759 1018.84 C 155.665 1018.98 155.518 1019.08 155.353 1019.11 L 146.224 1023.06 L 146.224 1035.13 C 146.227 1035.18 146.226 1035.22 146.222 1035.26 C 146.198 1035.54 145.988 1035.77 145.711 1035.82 L 136.23 1039.93 C 136.166 1039.96 136.097 1039.98 136.025 1039.99 C 136.014 1039.99 136.003 1039.99 135.992 1039.99 C 135.971 1039.99 135.951 1039.99 135.931 1039.99 L 135.931 1039.99 Z" id="path5389" clip-rule="evenodd"/></clipPath><clipPath id="clipPath5395"><path d=" M 116 1001 L 156 1001 L 156 1040 L 116 1040 Z" id="path5393"/></clipPath></defs><g id="g5369" transform="matrix(1.33333,0,0,-1.33333,-154.668,1386.66)"><g id="g5371" clip-path="url(#clipPath5375)"><g id="g5377" clip-path="url(#clipPath5381)"><g id="g5383"></g><g id="g5409"><g id="g5407" clip-path="url(#clipPath5387)"><g id="g5397"></g><g id="g5405"><g id="g5403" clip-path="url(#clipPath5391)"><g id="g5401" clip-path="url(#clipPath5395)"><path d=" M 111 996.134 L 160.878 996.134 L 160.878 1045 L 111 1045 Z" id="path5399" stroke="none" fill="#F8AC32" fill-rule="nonzero" fill-opacity="1"/></g></g></g></g></g></g></g></g></svg>