<svg version="1.1" width="49.1967" height="43.9533" xmlns="http://www.w3.org/2000/svg" xmlns:xlink="http://www.w3.org/1999/xlink" id="svg8257" overflow="hidden"><defs id="defs8261"><clipPath id="clipPath5491"><path d=" M 116 1065.04 L 152.898 1065.04 L 152.898 1098 L 116 1098 Z" id="path5489" clip-rule="evenodd"/></clipPath><clipPath id="clipPath5497"><path d=" M 0 0 L 1280 0 L 1280 1487 L 0 1487 Z" id="path5495"/></clipPath><clipPath id="clipPath5503"><path d=" M 116 1064 L 154 1064 L 154 1098 L 116 1098 Z" id="path5501"/></clipPath><clipPath id="clipPath5507"><path d=" M 145.901 1073.91 C 145.549 1073.91 145.265 1073.63 145.265 1073.28 C 145.265 1072.93 145.549 1072.65 145.901 1072.65 C 146.252 1072.65 146.537 1072.93 146.537 1073.28 C 146.537 1073.63 146.252 1073.91 145.901 1073.91 Z M 145.901 1075.18 C 147.093 1075.18 148.063 1074.2 148.063 1072.96 C 148.063 1072.54 147.455 1071.31 146.778 1070.36 C 146.34 1069.74 146.156 1069.54 145.901 1069.24 C 145.646 1069.54 145.46 1069.74 145.021 1070.36 C 144.345 1071.31 143.739 1072.54 143.739 1072.96 C 143.739 1074.2 144.708 1075.18 145.901 1075.18 Z M 137.75 1075.5 C 137.671 1075.5 137.593 1075.47 137.521 1075.44 L 133.811 1073.86 C 133.488 1073.72 133.337 1073.35 133.475 1073.03 C 133.613 1072.7 133.987 1072.56 134.31 1072.69 L 138.021 1074.28 C 138.346 1074.41 138.503 1074.78 138.371 1075.1 C 138.27 1075.35 138.02 1075.51 137.75 1075.5 Z M 145.901 1076.45 C 144.003 1076.45 142.467 1074.87 142.467 1072.96 C 142.467 1071.79 143.26 1070.65 143.982 1069.63 C 144.705 1068.6 145.424 1067.79 145.424 1067.79 C 145.656 1067.53 146.059 1067.5 146.322 1067.73 C 146.342 1067.75 146.361 1067.77 146.378 1067.79 C 146.378 1067.79 147.097 1068.6 147.819 1069.63 C 148.542 1070.65 149.335 1071.79 149.335 1072.96 C 149.335 1074.87 147.799 1076.45 145.901 1076.45 Z M 145.901 1077.72 C 147.366 1077.72 148.83 1077.16 149.952 1076.05 C 152.195 1073.81 152.195 1070.2 149.952 1067.97 C 147.709 1065.73 144.093 1065.74 141.85 1067.97 C 139.607 1070.2 139.607 1073.81 141.85 1076.04 C 142.972 1077.16 144.436 1077.72 145.901 1077.72 L 145.901 1077.72 Z M 145.742 1090.07 L 145.742 1078.98 C 144.002 1078.94 142.275 1078.27 140.951 1076.95 C 139.988 1075.99 139.37 1074.81 139.087 1073.58 L 139.082 1073.58 L 137.521 1072.91 L 133.811 1071.33 C 133.488 1071.2 133.337 1070.82 133.475 1070.5 C 133.613 1070.18 133.987 1070.03 134.31 1070.17 L 138.021 1071.75 L 138.908 1072.13 C 138.895 1071.3 139.032 1070.48 139.31 1069.69 L 132.143 1066.64 L 132.143 1084.28 L 145.742 1090.07 L 145.742 1090.07 Z M 117.272 1090.07 L 121.09 1088.44 L 121.09 1080.25 C 121.09 1079.9 121.375 1079.62 121.726 1079.62 C 121.824 1079.62 121.921 1079.64 122.009 1079.69 L 124.052 1080.7 L 126.251 1077.42 C 126.372 1077.19 126.624 1077.05 126.885 1077.08 C 126.907 1077.08 126.93 1077.09 126.952 1077.09 C 126.959 1077.09 126.965 1077.09 126.972 1077.09 C 126.986 1077.09 127 1077.1 127.014 1077.1 C 127.074 1077.12 127.131 1077.15 127.183 1077.19 C 127.378 1077.32 127.482 1077.56 127.451 1077.79 L 127.451 1085.73 L 130.871 1084.27 L 130.871 1066.63 L 117.272 1072.43 L 117.272 1090.06 L 117.272 1090.06 Z M 141.642 1092.36 L 144.763 1091.03 L 131.507 1085.38 L 128.388 1086.71 L 141.607 1092.34 C 141.618 1092.35 141.63 1092.35 141.641 1092.36 Z M 136.244 1094.66 L 140.029 1093.05 L 126.562 1087.31 C 126.25 1087.19 126.083 1086.85 126.179 1086.53 L 126.179 1079.81 L 124.8 1081.87 C 124.622 1082.14 124.272 1082.23 123.985 1082.09 L 122.362 1081.28 L 122.362 1088.74 Z M 131.507 1096.68 L 134.626 1095.35 L 121.408 1089.72 C 121.395 1089.71 121.383 1089.71 121.37 1089.7 L 118.252 1091.03 L 131.507 1096.68 L 131.507 1096.68 Z M 131.472 1098 L 131.462 1098 C 131.441 1098 131.419 1097.99 131.398 1097.99 C 131.345 1097.98 131.293 1097.96 131.244 1097.94 L 116.532 1091.67 C 116.223 1091.62 115.997 1091.35 116 1091.04 L 116 1072.02 C 116 1072 116.002 1071.97 116.005 1071.94 L 116.005 1071.93 C 116.007 1071.92 116.009 1071.91 116.012 1071.89 C 116.049 1071.68 116.195 1071.5 116.397 1071.42 L 131.243 1065.09 C 131.314 1065.06 131.39 1065.04 131.467 1065.04 C 131.476 1065.04 131.485 1065.04 131.494 1065.04 L 131.497 1065.04 C 131.504 1065.04 131.511 1065.04 131.517 1065.04 C 131.525 1065.04 131.534 1065.04 131.542 1065.04 C 131.555 1065.04 131.569 1065.04 131.582 1065.04 C 131.647 1065.05 131.71 1065.06 131.771 1065.09 L 139.842 1068.53 C 140.142 1068.01 140.507 1067.52 140.951 1067.07 C 143.68 1064.35 148.122 1064.35 150.852 1067.07 C 153.58 1069.79 153.579 1074.22 150.852 1076.94 C 149.771 1078.02 148.42 1078.66 147.014 1078.88 L 147.014 1091.04 C 147.018 1091.35 146.788 1091.62 146.475 1091.67 L 131.771 1097.94 C 131.718 1097.96 131.661 1097.98 131.604 1097.98 L 131.587 1097.98 C 131.571 1097.98 131.555 1097.98 131.54 1097.98 C 131.517 1097.98 131.495 1097.98 131.472 1097.98 Z" id="path5505" clip-rule="evenodd"/></clipPath><clipPath id="clipPath5511"><path d=" M 116 1065 L 153 1065 L 153 1098 L 116 1098 Z" id="path5509"/></clipPath></defs><g id="g5485" transform="matrix(1.33333,0,0,-1.33333,-154.667,1464)"><g id="g5487" clip-path="url(#clipPath5491)"><g id="g5493" clip-path="url(#clipPath5497)"><g id="g5499"></g><g id="g5525"><g id="g5523" clip-path="url(#clipPath5503)"><g id="g5513"></g><g id="g5521"><g id="g5519" clip-path="url(#clipPath5507)"><g id="g5517" clip-path="url(#clipPath5511)"><path d=" M 111 1060.04 L 157.898 1060.04 L 157.898 1103 L 111 1103 Z" id="path5515" stroke="none" fill="#F8AC32" fill-rule="nonzero" fill-opacity="1"/></g></g></g></g></g></g></g></g></svg>