<svg version="1.1" width="41.1484" height="33.1927" xmlns="http://www.w3.org/2000/svg" xmlns:xlink="http://www.w3.org/1999/xlink" id="svg8315" overflow="hidden"><defs id="defs8319"><clipPath id="clipPath5781"><path d=" M 127.718 952.291 L 122.226 952.291 L 122.226 952.406 C 122.226 953.903 123.456 955.116 124.972 955.116 C 126.489 955.116 127.718 953.903 127.718 952.406 Z M 124.972 956.682 C 122.601 956.682 120.679 954.785 120.679 952.444 L 120.679 952.406 L 120.679 950.764 L 129.265 950.764 L 129.265 952.406 C 129.286 954.746 127.382 956.661 125.011 956.682 C 124.998 956.682 124.985 956.682 124.972 956.682 Z" id="path5779" clip-rule="evenodd"/></clipPath><clipPath id="clipPath5787"><path d=" M 0 0 L 1280 0 L 1280 1487 L 0 1487 Z" id="path5785"/></clipPath><clipPath id="clipPath5765"><path d=" M 124.972 960.615 C 125.549 960.615 126.017 960.153 126.017 959.584 C 126.017 959.014 125.549 958.553 124.972 958.553 C 124.396 958.553 123.928 959.014 123.928 959.584 C 123.928 960.153 124.396 960.615 124.972 960.615 M 124.972 957.064 C 126.403 957.064 127.563 958.209 127.563 959.622 C 127.563 961.035 126.403 962.18 124.972 962.18 C 123.541 962.18 122.381 961.035 122.381 959.622 C 122.381 958.209 123.541 957.064 124.972 957.064" id="path5763" clip-rule="evenodd"/></clipPath><clipPath id="clipPath5771"><path d=" M 0 0 L 1280 0 L 1280 1487 L 0 1487 Z" id="path5769"/></clipPath><clipPath id="clipPath5749"><path d=" M 132.978 956.873 L 137.85 956.873 L 137.85 958.4 L 132.978 958.4 Z" id="path5747" clip-rule="evenodd"/></clipPath><clipPath id="clipPath5755"><path d=" M 0 0 L 1280 0 L 1280 1487 L 0 1487 Z" id="path5753"/></clipPath><clipPath id="clipPath5733"><path d=" M 132.978 952.367 L 141.718 952.367 L 141.718 953.894 L 132.978 953.894 Z" id="path5731" clip-rule="evenodd"/></clipPath><clipPath id="clipPath5739"><path d=" M 0 0 L 1280 0 L 1280 1487 L 0 1487 Z" id="path5737"/></clipPath><clipPath id="clipPath5717"><path d=" M 128.298 971 L 128.298 967.678 L 116 967.678 L 116 946.106 L 146.861 946.106 L 146.861 967.678 L 134.563 967.678 L 134.563 971 Z M 129.845 965.12 L 132.978 965.12 L 132.978 969.473 L 129.845 969.473 Z M 134.563 963.593 L 134.563 966.151 L 145.314 966.151 L 145.314 947.633 L 117.547 947.633 L 117.547 966.151 L 128.298 966.151 L 128.298 963.593 Z" id="path5715" clip-rule="evenodd"/></clipPath><clipPath id="clipPath5723"><path d=" M 0 0 L 1280 0 L 1280 1487 L 0 1487 Z" id="path5721"/></clipPath></defs><g id="g5711" transform="matrix(1.33333,0,0,-1.33333,-154.667,1294.67)"><g id="g5713" clip-path="url(#clipPath5717)"><g id="g5719" clip-path="url(#clipPath5723)"><path d=" M 111 941.106 L 151.861 941.106 L 151.861 976 L 111 976 Z" id="path5725" stroke="none" fill="#F8AC32" fill-rule="nonzero" fill-opacity="1"/></g></g></g><g id="g5727" transform="matrix(1.33333,0,0,-1.33333,-154.667,1294.67)"><g id="g5729" clip-path="url(#clipPath5733)"><g id="g5735" clip-path="url(#clipPath5739)"><path d=" M 127.978 947.367 L 146.718 947.367 L 146.718 958.895 L 127.978 958.895 Z" id="path5741" stroke="none" fill="#F8AC32" fill-rule="nonzero" fill-opacity="1"/></g></g></g><g id="g5743" transform="matrix(1.33333,0,0,-1.33333,-154.667,1294.67)"><g id="g5745" clip-path="url(#clipPath5749)"><g id="g5751" clip-path="url(#clipPath5755)"><path d=" M 127.978 951.873 L 142.85 951.873 L 142.85 963.4 L 127.978 963.4 Z" id="path5757" stroke="none" fill="#F8AC32" fill-rule="nonzero" fill-opacity="1"/></g></g></g><g id="g5759" transform="matrix(1.33333,0,0,-1.33333,-154.667,1294.67)"><g id="g5761" clip-path="url(#clipPath5765)"><g id="g5767" clip-path="url(#clipPath5771)"><path d=" M 117.381 952.064 L 132.563 952.064 L 132.563 967.18 L 117.381 967.18 Z" id="path5773" stroke="none" fill="#F8AC32" fill-rule="nonzero" fill-opacity="1"/></g></g></g><g id="g5775" transform="matrix(1.33333,0,0,-1.33333,-154.667,1294.67)"><g id="g5777" clip-path="url(#clipPath5781)"><g id="g5783" clip-path="url(#clipPath5787)"><path d=" M 115.679 945.764 L 134.265 945.764 L 134.265 961.682 L 115.679 961.682 Z" id="path5789" stroke="none" fill="#F8AC32" fill-rule="nonzero" fill-opacity="1"/></g></g></g></svg>