<svg version="1.1" width="49.293" height="41.264" xmlns="http://www.w3.org/2000/svg" xmlns:xlink="http://www.w3.org/1999/xlink" id="svg9051" overflow="hidden"><defs id="defs9055"><clipPath id="clipPath6005"><path d=" M 118 877.052 L 154.97 877.052 L 154.97 908 L 118 908 Z" id="path6003" clip-rule="evenodd"/></clipPath><clipPath id="clipPath6011"><path d=" M 0 0 L 1280 0 L 1280 1394 L 0 1394 Z" id="path6009"/></clipPath><clipPath id="clipPath6017"><path d=" M 118 877 L 156 877 L 156 908 L 118 908 Z" id="path6015"/></clipPath><clipPath id="clipPath6021"><path d=" M 122.62 890.794 L 139.68 890.794 L 139.68 891.44 L 122.62 891.44 Z" id="path6019" clip-rule="evenodd"/></clipPath><clipPath id="clipPath6025"><path d=" M 118 877 L 155 877 L 155 908 L 118 908 Z" id="path6023"/></clipPath><clipPath id="clipPath6029"><path d=" M 122.62 886.507 L 139.68 886.507 L 139.68 887.153 L 122.62 887.153 Z" id="path6027" clip-rule="evenodd"/></clipPath><clipPath id="clipPath6033"><path d=" M 118 877 L 155 877 L 155 908 L 118 908 Z" id="path6031"/></clipPath><clipPath id="clipPath6037"><path d=" M 142.108 879.166 C 141.634 878.696 140.923 878.403 140.094 878.403 L 140.094 878.344 L 140.094 878.403 L 122.206 878.403 C 120.488 878.403 119.422 879.46 119.422 881.163 L 119.422 884.451 L 119.422 899.133 L 124.338 899.133 C 126.233 899.133 127.3 900.19 127.3 902.069 L 127.3 906.473 L 140.153 906.473 C 141.753 906.473 142.819 905.357 142.819 903.772 L 142.819 896.138 L 142.819 881.104 C 142.878 880.399 142.582 879.695 142.108 879.166 Z M 125.819 905.945 L 125.819 902.128 C 125.819 901.07 125.404 900.659 124.279 900.659 L 120.369 900.659 C 121.969 902.186 123.686 903.831 125.819 905.945 Z M 144.3 903.889 C 144.3 906.238 142.523 908 140.212 908 L 127.3 908 C 126.411 908 125.641 907.706 124.99 907.06 C 123.272 905.416 121.08 903.243 118.829 901.07 C 118.296 900.542 118 899.896 118 899.191 L 118 884.51 L 118 881.221 C 118 878.755 119.718 877.052 122.206 877.052 L 140.094 877.052 C 141.279 877.052 142.345 877.463 143.115 878.227 C 143.885 878.99 144.3 880.047 144.3 881.221 L 144.3 896.255 Z" id="path6035" clip-rule="evenodd"/></clipPath><clipPath id="clipPath6041"><path d=" M 118 877 L 155 877 L 155 908 L 118 908 Z" id="path6039"/></clipPath><clipPath id="clipPath6045"><path d=" M 150.934 892.966 C 150.934 892.497 150.875 891.968 150.756 891.498 C 150.638 890.911 150.578 890.324 150.578 889.737 L 150.578 889.384 L 150.578 886.331 C 150.578 884.804 150.282 883.159 149.571 881.398 C 149.512 881.339 149.512 881.28 149.512 881.221 L 149.275 881.221 L 149.038 881.221 C 149.038 881.28 148.979 881.339 148.979 881.398 C 148.268 883.159 147.913 884.745 147.972 886.331 L 147.972 889.384 L 147.972 889.737 C 147.972 890.324 147.913 890.911 147.794 891.498 C 147.676 891.968 147.617 892.438 147.617 892.908 L 147.617 902.773 C 147.617 903.243 147.794 903.654 148.091 903.948 C 148.742 904.594 149.868 904.594 150.46 903.948 C 150.756 903.654 150.934 903.185 150.934 902.773 Z M 152.415 903.008 C 152.355 903.772 152.059 904.418 151.526 904.946 C 150.934 905.534 150.164 905.886 149.275 905.886 C 148.446 905.886 147.617 905.534 147.024 904.946 C 146.432 904.359 146.077 903.596 146.077 902.715 L 146.077 892.966 C 146.077 892.379 146.136 891.792 146.254 891.205 C 146.373 890.735 146.432 890.265 146.432 889.737 L 146.432 889.326 L 146.432 886.331 C 146.432 884.569 146.788 882.807 147.557 880.869 C 147.735 880.458 147.972 879.988 148.505 879.812 L 148.505 878.99 C 148.505 878.579 148.861 878.285 149.216 878.285 C 149.631 878.285 149.927 878.638 149.927 878.99 L 149.927 879.871 C 150.46 880.047 150.697 880.517 150.875 880.928 C 151.645 882.866 152.059 884.686 152 886.389 L 152 889.384 L 152 889.737 C 152 890.206 152.059 890.676 152.178 891.146 C 152.296 891.733 152.355 892.32 152.355 892.908 L 152.355 901.54 C 153.007 901.423 153.54 900.894 153.54 900.19 L 153.54 895.198 C 153.54 894.787 153.895 894.493 154.251 894.493 C 154.665 894.493 154.962 894.846 154.962 895.198 L 154.962 900.19 C 155.08 901.716 153.895 902.95 152.415 903.008 Z" id="path6043" clip-rule="evenodd"/></clipPath><clipPath id="clipPath6049"><path d=" M 118 877 L 155 877 L 155 908 L 118 908 Z" id="path6047"/></clipPath><clipPath id="clipPath6053"><path d=" M 139.361 894.356 C 138.892 894.041 138.091 893.741 137.108 893.741 C 135.883 893.741 134.779 894.206 134.038 895.075 C 133.464 895.705 133.086 896.574 132.95 897.654 L 132.012 897.654 L 132.012 898.403 L 132.874 898.403 L 132.874 898.628 C 132.874 898.853 132.889 899.078 132.904 899.288 L 132.012 899.288 L 132.012 900.037 L 133.01 900.037 C 133.191 901.087 133.63 901.956 134.25 902.571 C 135.006 903.365 136.004 903.815 137.229 903.815 C 138.136 903.815 138.832 903.56 139.255 903.335 L 138.953 902.346 C 138.56 902.571 137.939 902.766 137.259 902.766 C 136.443 902.766 135.762 902.481 135.248 901.956 C 134.809 901.506 134.507 900.832 134.356 900.037 L 138.575 900.037 L 138.575 899.288 L 134.22 899.288 C 134.189 899.093 134.189 898.883 134.189 898.658 L 134.189 898.403 L 138.575 898.403 L 138.575 897.654 L 134.295 897.654 C 134.416 896.784 134.704 896.14 135.127 895.69 C 135.687 895.09 136.443 894.82 137.259 894.82 C 138.061 894.82 138.756 895.105 139.104 895.315 Z" id="path6051" clip-rule="evenodd"/></clipPath><clipPath id="clipPath6057"><path d=" M 118 877 L 155 877 L 155 908 L 118 908 Z" id="path6055"/></clipPath></defs><g id="g5999" transform="matrix(1.33333,0,0,-1.33333,-157.333,1210.67)"><g id="g6001" clip-path="url(#clipPath6005)"><g id="g6007" clip-path="url(#clipPath6011)"><g id="g6013"></g><g id="g6103"><g id="g6101" clip-path="url(#clipPath6017)"><g id="g6059"></g><g id="g6067"><g id="g6065" clip-path="url(#clipPath6021)"><g id="g6063" clip-path="url(#clipPath6025)"><path d=" M 117.62 885.794 L 144.679 885.794 L 144.679 896.44 L 117.62 896.44 Z" id="path6061" stroke="none" fill="#65BB9F" fill-rule="nonzero" fill-opacity="1"/></g></g></g><g id="g6075"><g id="g6073" clip-path="url(#clipPath6029)"><g id="g6071" clip-path="url(#clipPath6033)"><path d=" M 117.62 881.507 L 144.679 881.507 L 144.679 892.153 L 117.62 892.153 Z" id="path6069" stroke="none" fill="#65BB9F" fill-rule="nonzero" fill-opacity="1"/></g></g></g><g id="g6083"><g id="g6081" clip-path="url(#clipPath6037)"><g id="g6079" clip-path="url(#clipPath6041)"><path d=" M 113 872.052 L 149.3 872.052 L 149.3 913 L 113 913 Z" id="path6077" stroke="none" fill="#65BB9F" fill-rule="nonzero" fill-opacity="1"/></g></g></g><g id="g6091"><g id="g6089" clip-path="url(#clipPath6045)"><g id="g6087" clip-path="url(#clipPath6049)"><path d=" M 141.077 873.285 L 159.97 873.285 L 159.97 910.886 L 141.077 910.886 Z" id="path6085" stroke="none" fill="#65BB9F" fill-rule="nonzero" fill-opacity="1"/></g></g></g><g id="g6099"><g id="g6097" clip-path="url(#clipPath6053)"><g id="g6095" clip-path="url(#clipPath6057)"><path d=" M 127.012 888.741 L 144.361 888.741 L 144.361 908.815 L 127.012 908.815 Z" id="path6093" stroke="none" fill="#65BB9F" fill-rule="nonzero" fill-opacity="1"/></g></g></g></g></g></g></g></g></svg>