<svg version="1.1" width="97.5675" height="109" xmlns="http://www.w3.org/2000/svg" xmlns:xlink="http://www.w3.org/1999/xlink" id="svg4920" overflow="hidden"><defs id="defs4924"><clipPath id="clipPath3037"><path d=" M 690.899 1061 L 598 1061 L 598 957.215 L 690.899 957.215 Z" id="path3035" clip-rule="evenodd"/></clipPath><clipPath id="clipPath3043"><path d=" M 0 0 L 1280 0 L 1280 1487 L 0 1487 Z" id="path3041"/></clipPath><clipPath id="clipPath3049"><path d=" M 596 957 L 693 957 L 693 1063 L 596 1063 Z" id="path3047"/></clipPath><clipPath id="clipPath3053"><path d=" M 604.264 992.336 L 607.943 994.768 L 614.248 985.333 L 610.549 982.901 C 609.469 982.189 608.016 982.484 607.302 983.562 L 603.602 989.118 C 602.903 990.19 603.198 991.625 604.264 992.336 Z M 609.782 1005.04 C 610.134 1006.8 611.179 1008.35 612.682 1009.34 L 625.462 1017.78 L 642.329 992.336 L 629.56 983.949 C 626.447 981.865 622.229 982.694 620.14 985.8 C 620.127 985.819 620.115 985.838 620.102 985.857 L 610.78 999.946 C 609.778 1001.44 609.418 1003.28 609.782 1005.04 Z M 643.265 1040.44 L 670.19 999.915 C 661.919 1000.74 654.626 999.915 646.743 995.229 L 629.802 1020.72 C 637.159 1026.17 640.805 1032.53 643.265 1040.44 Z M 642.456 1052.96 C 642.637 1053.85 643.166 1054.63 643.927 1055.13 L 644.021 1055.23 C 645.618 1056.26 647.744 1055.8 648.771 1054.2 C 648.774 1054.19 648.779 1054.19 648.782 1054.19 L 685.071 999.57 C 686.118 997.992 685.685 995.866 684.104 994.821 L 684.01 994.757 C 682.428 993.714 680.297 994.145 679.249 995.722 L 642.96 1050.38 C 642.451 1051.14 642.27 1052.07 642.456 1052.96 Z M 657.515 963.161 C 655.939 962.113 653.932 962.259 653.122 963.465 L 639.429 984.18 L 645.241 988.027 L 658.987 967.313 C 659.796 966.128 659.145 964.199 657.515 963.161 Z M 602.929 980.605 C 604.039 978.926 605.776 977.76 607.753 977.366 C 608.255 977.263 608.766 977.21 609.278 977.209 C 610.773 977.207 612.237 977.648 613.481 978.477 L 617.369 981.045 C 619.033 979.399 621.146 978.276 623.444 977.817 C 624.24 977.656 625.049 977.575 625.861 977.576 C 628.221 977.576 630.529 978.272 632.493 979.578 L 635.078 981.286 L 648.793 960.572 C 650.266 958.422 652.729 957.159 655.34 957.217 C 657.168 957.227 658.951 957.774 660.469 958.789 C 664.483 961.442 665.787 966.568 663.369 970.206 L 649.707 990.858 C 657.61 995.481 664.872 995.607 674.047 994.118 L 674.877 992.87 C 677.526 988.878 682.919 987.783 686.921 990.425 C 686.928 990.43 686.935 990.434 686.942 990.438 L 687.037 990.501 C 691.016 993.158 692.096 998.521 689.454 1002.5 L 653.154 1057.13 C 650.498 1061.11 645.119 1062.2 641.121 1059.56 L 641.026 1059.5 C 637.032 1056.85 635.945 1051.47 638.599 1047.49 L 639.429 1046.24 C 637.001 1036.44 633.733 1029.54 624.936 1023.78 L 609.782 1013.7 C 605.028 1010.56 603.138 1004.52 605.252 999.234 L 601.364 996.666 C 597.896 994.339 596.958 989.659 599.262 986.182 Z" id="path3051" clip-rule="evenodd"/></clipPath><clipPath id="clipPath3057"><path d=" M 598 957 L 691 957 L 691 1061 L 598 1061 Z" id="path3055"/></clipPath></defs><g id="g3031" stroke-width="1.26954" transform="matrix(1.05025,0,0,-1.05025,-628.05,1114.32)"><g id="g3033" stroke-width="1.26954" clip-path="url(#clipPath3037)"><g id="g3039" stroke-width="1.26954" clip-path="url(#clipPath3043)"><g id="g3045" stroke-width="1.26954"></g><g id="g3071" stroke-width="1.26954"><g id="g3069" stroke-width="1.26954" clip-path="url(#clipPath3049)"><g id="g3059" stroke-width="1.26954"></g><g id="g3067" stroke-width="1.26954"><g id="g3065" stroke-width="1.26954" clip-path="url(#clipPath3053)"><g id="g3063" stroke-width="1.26954" clip-path="url(#clipPath3057)"><path d=" M 593 952.215 L 695.899 952.215 L 695.899 1066 L 593 1066 Z" id="path3061" stroke="none" stroke-width="1.26954" fill="#212B51" fill-rule="nonzero" fill-opacity="1"/></g></g></g></g></g></g></g></g></svg>