<svg version="1.1" width="114.225" height="109" xmlns="http://www.w3.org/2000/svg" xmlns:xlink="http://www.w3.org/1999/xlink" id="svg4998" overflow="hidden"><defs id="defs5002"><clipPath id="clipPath3909"><path d=" M 603 493.207 L 703.998 493.207 L 703.998 589.586 L 603 589.586 Z" id="path3907" clip-rule="evenodd"/></clipPath><clipPath id="clipPath3915"><path d=" M 0 0 L 1280 0 L 1280 1487 L 0 1487 Z" id="path3913"/></clipPath><clipPath id="clipPath3921"><path d=" M 602 493 L 705 493 L 705 590 L 602 590 Z" id="path3919"/></clipPath><clipPath id="clipPath3925"><path d=" M 629.667 527.821 C 629.742 528.464 629.535 529.108 629.095 529.593 L 609.59 550.791 L 637.845 556.517 C 638.48 556.652 639.024 557.055 639.337 557.619 L 653.491 582.803 L 667.641 557.672 C 667.956 557.105 668.5 556.701 669.146 556.563 L 697.393 550.854 L 677.896 529.603 C 677.461 529.124 677.255 528.48 677.33 527.838 L 680.626 499.156 L 654.416 511.182 C 654.123 511.315 653.812 511.382 653.49 511.382 C 653.169 511.382 652.857 511.315 652.56 511.18 L 626.356 499.157 Z M 703.869 553.021 C 703.62 553.782 702.979 554.355 702.193 554.519 L 671.048 560.869 L 655.436 588.485 L 655.405 588.537 C 654.982 589.193 654.262 589.586 653.481 589.586 C 653.04 589.586 652.611 589.458 652.239 589.217 C 651.966 589.041 651.737 588.812 651.56 588.538 L 635.932 560.771 L 604.782 554.421 C 604.196 554.299 603.693 553.955 603.366 553.453 C 603.038 552.951 602.926 552.352 603.048 551.765 C 603.13 551.372 603.317 551.007 603.59 550.708 L 625.064 527.33 L 621.419 495.72 C 621.348 495.125 621.512 494.537 621.881 494.065 C 622.251 493.594 622.782 493.294 623.377 493.223 C 623.466 493.213 623.555 493.207 623.644 493.207 C 623.968 493.207 624.294 493.279 624.582 493.413 L 653.491 506.667 L 682.377 493.431 C 682.675 493.293 682.992 493.223 683.32 493.223 L 683.32 493.223 C 684.189 493.223 684.988 493.733 685.354 494.525 C 685.529 494.903 685.594 495.321 685.546 495.73 L 681.916 527.33 L 703.382 550.747 C 703.967 551.367 704.149 552.25 703.869 553.021 Z" id="path3923" clip-rule="evenodd"/></clipPath><clipPath id="clipPath3929"><path d=" M 603 493 L 704 493 L 704 590 L 603 590 Z" id="path3927"/></clipPath><clipPath id="clipPath3951"><path d=" M 653.489 533.471 L 653.101 533.464 C 648.903 533.668 645.55 537.152 645.55 541.406 C 645.55 545.791 649.112 549.358 653.49 549.358 C 657.861 549.358 661.423 545.797 661.431 541.424 C 661.423 537.046 657.86 533.478 653.489 533.471 M 665.913 541.424 C 665.903 548.273 660.332 553.853 653.49 553.863 C 646.64 553.863 641.067 548.282 641.067 541.422 C 641.067 534.562 646.64 528.982 653.49 528.982 C 660.34 528.982 665.913 534.562 665.913 541.424" id="path3949" clip-rule="evenodd"/></clipPath><clipPath id="clipPath3957"><path d=" M 0 0 L 1280 0 L 1280 1487 L 0 1487 Z" id="path3955"/></clipPath></defs><g id="g4918" stroke-width="1.17894" transform="matrix(1.13096,0,0,-1.13096,-681.97,666.798)"><g id="g3903" stroke-width="1.17894"><g id="g3905" stroke-width="1.17894" clip-path="url(#clipPath3909)"><g id="g3911" stroke-width="1.17894" clip-path="url(#clipPath3915)"><g id="g3917" stroke-width="1.17894"></g><g id="g3943" stroke-width="1.17894"><g id="g3941" stroke-width="1.17894" clip-path="url(#clipPath3921)"><g id="g3931" stroke-width="1.17894"></g><g id="g3939" stroke-width="1.17894"><g id="g3937" stroke-width="1.17894" clip-path="url(#clipPath3925)"><g id="g3935" stroke-width="1.17894" clip-path="url(#clipPath3929)"><path d=" M 598 488.207 L 708.998 488.207 L 708.998 594.586 L 598 594.586 Z" id="path3933" stroke="none" stroke-width="1.17894" fill="#212B51" fill-rule="nonzero" fill-opacity="1"/></g></g></g></g></g></g></g></g><g id="g3945" stroke-width="1.17894"><g id="g3947" stroke-width="1.17894" clip-path="url(#clipPath3951)"><g id="g3953" stroke-width="1.17894" clip-path="url(#clipPath3957)"><path d=" M 636.067 523.982 L 670.913 523.982 L 670.913 558.864 L 636.067 558.864 Z" id="path3959" stroke="none" stroke-width="1.17894" fill="#212B51" fill-rule="nonzero" fill-opacity="1"/></g></g></g></g></svg>