<svg version="1.1" width="127.639" height="109" xmlns="http://www.w3.org/2000/svg" xmlns:xlink="http://www.w3.org/1999/xlink" id="svg4949" overflow="hidden"><defs id="defs4953"><clipPath id="clipPath3769"><path d=" M 667.472 800.132 C 665.045 802.028 661.516 801.58 659.604 799.133 C 657.693 796.687 658.112 793.154 660.539 791.258 C 662.966 789.362 666.495 789.81 668.407 792.256 C 670.318 794.703 669.899 798.236 667.472 800.132 Z M 658.169 788.225 C 654.083 791.417 653.377 797.365 656.595 801.484 C 659.814 805.603 665.756 806.358 669.842 803.166 C 673.928 799.973 674.634 794.024 671.416 789.905 C 668.198 785.786 662.255 785.032 658.169 788.225 Z M 606.461 761.231 L 644.472 731.533 L 681.091 778.404 L 679.376 804.728 L 669.052 812.795 L 643.08 808.1 Z M 643.606 727.324 L 602.586 759.372 C 601.756 760.022 601.612 761.227 602.267 762.065 L 640.525 811.033 C 640.818 811.408 641.238 811.662 641.704 811.746 L 669.241 816.724 C 669.776 816.82 670.325 816.685 670.751 816.352 L 682.417 807.238 C 682.844 806.904 683.108 806.404 683.143 805.861 L 684.961 777.95 C 684.992 777.477 684.847 777.008 684.554 776.634 L 646.296 727.666 C 645.641 726.828 644.437 726.675 643.606 727.324 Z" id="path3767" clip-rule="evenodd"/></clipPath><clipPath id="clipPath3775"><path d=" M 0 0 L 1280 0 L 1280 1487 L 0 1487 Z" id="path3773"/></clipPath><clipPath id="clipPath3785"><path d=" M 662.767 792.566 C 660.788 794.112 660.687 795.252 660.99 796.257 C 661.298 797.274 662.367 797.854 663.379 797.554 C 664.142 797.328 664.654 796.666 664.729 795.919 C 665.894 794.7 672.139 791.397 683.539 788.001 C 685.542 787.405 687.596 786.842 689.645 786.33 C 694.898 785.049 698.676 784.478 701.034 784.312 C 697.144 786.621 689.192 790.239 681.383 792.663 C 680.374 792.976 679.818 794.05 680.138 795.063 C 680.458 796.075 681.535 796.642 682.543 796.33 C 687.726 794.721 693.746 792.326 698.647 789.924 C 705.419 786.606 707.588 784.686 706.94 782.586 C 706.256 780.321 703.248 780.261 700.101 780.535 C 697.129 780.794 693.188 781.51 688.701 782.603 C 686.587 783.132 684.478 783.709 682.422 784.321 C 676.682 786.031 671.379 787.988 667.488 789.832 C 665.289 790.874 663.782 791.773 662.767 792.566" id="path3783" clip-rule="evenodd"/></clipPath><clipPath id="clipPath3791"><path d=" M 0 0 L 1280 0 L 1280 1487 L 0 1487 Z" id="path3789"/></clipPath><clipPath id="clipPath3801"><path d=" M 628.914 766.029 C 628.083 766.678 627.94 767.883 628.594 768.721 L 639.473 782.645 C 640.128 783.483 641.332 783.635 642.163 782.986 C 642.994 782.337 643.137 781.132 642.482 780.294 L 631.604 766.37 C 630.949 765.532 629.745 765.38 628.914 766.029" id="path3799" clip-rule="evenodd"/></clipPath><clipPath id="clipPath3807"><path d=" M 0 0 L 1280 0 L 1280 1487 L 0 1487 Z" id="path3805"/></clipPath><clipPath id="clipPath3817"><path d=" M 631.519 754.129 C 630.688 754.778 630.545 755.983 631.2 756.821 L 651.65 782.996 C 652.304 783.834 653.509 783.987 654.339 783.338 C 655.17 782.688 655.313 781.483 654.659 780.645 L 634.209 754.47 C 633.554 753.632 632.35 753.48 631.519 754.129" id="path3815" clip-rule="evenodd"/></clipPath><clipPath id="clipPath3823"><path d=" M 0 0 L 1280 0 L 1280 1487 L 0 1487 Z" id="path3821"/></clipPath><clipPath id="clipPath3833"><path d=" M 643.696 754.48 C 642.865 755.13 642.721 756.335 643.376 757.172 L 654.255 771.097 C 654.909 771.934 656.113 772.087 656.944 771.438 C 657.775 770.789 657.918 769.583 657.264 768.746 L 646.385 754.822 C 645.731 753.984 644.527 753.831 643.696 754.48" id="path3831" clip-rule="evenodd"/></clipPath><clipPath id="clipPath3839"><path d=" M 0 0 L 1280 0 L 1280 1487 L 0 1487 Z" id="path3837"/></clipPath></defs><g id="g4901" stroke-width="1.09887" transform="matrix(1.21337,0,0,-1.21337,-730.276,991.027)"><g id="g3763" stroke-width="1.09887"><g id="g3765" stroke-width="1.09887" clip-path="url(#clipPath3769)"><g id="g3771" stroke-width="1.09887" clip-path="url(#clipPath3775)"><path d=" M 653.701 836.018 L 705.61 795.463 L 645.973 719.13 L 594.064 759.686 Z" id="path3777" stroke="none" stroke-width="1.09887" fill="#212B51" fill-rule="nonzero" fill-opacity="1"/></g></g></g><g id="g3779" stroke-width="1.09887"><g id="g3781" stroke-width="1.09887" clip-path="url(#clipPath3785)"><g id="g3787" stroke-width="1.09887" clip-path="url(#clipPath3791)"><path d=" M 671.862 818.507 L 715.153 784.685 L 696.042 760.224 L 652.751 794.046 Z" id="path3793" stroke="none" stroke-width="1.09887" fill="#212B51" fill-rule="nonzero" fill-opacity="1"/></g></g></g><g id="g3795" stroke-width="1.09887"><g id="g3797" stroke-width="1.09887" clip-path="url(#clipPath3801)"><g id="g3803" stroke-width="1.09887" clip-path="url(#clipPath3807)"><path d=" M 639.797 791.18 L 650.686 782.673 L 631.28 757.835 L 620.391 766.343 Z" id="path3809" stroke="none" stroke-width="1.09887" fill="#212B51" fill-rule="nonzero" fill-opacity="1"/></g></g></g><g id="g3811" stroke-width="1.09887"><g id="g3813" stroke-width="1.09887" clip-path="url(#clipPath3817)"><g id="g3819" stroke-width="1.09887" clip-path="url(#clipPath3823)"><path d=" M 651.973 791.531 L 662.862 783.024 L 633.885 745.935 L 622.996 754.443 Z" id="path3825" stroke="none" stroke-width="1.09887" fill="#212B51" fill-rule="nonzero" fill-opacity="1"/></g></g></g><g id="g3827" stroke-width="1.09887"><g id="g3829" stroke-width="1.09887" clip-path="url(#clipPath3833)"><g id="g3835" stroke-width="1.09887" clip-path="url(#clipPath3839)"><path d=" M 654.578 779.632 L 665.467 771.124 L 646.062 746.286 L 635.173 754.794 Z" id="path3841" stroke="none" stroke-width="1.09887" fill="#212B51" fill-rule="nonzero" fill-opacity="1"/></g></g></g></g></svg>