<?xml version="1.0" encoding="UTF-8" standalone="no"?>
<!-- Created with Inkscape (http://www.inkscape.org/) -->

<svg
   xmlns:dc="http://purl.org/dc/elements/1.1/"
   xmlns:cc="http://creativecommons.org/ns#"
   xmlns:rdf="http://www.w3.org/1999/02/22-rdf-syntax-ns#"
   xmlns:svg="http://www.w3.org/2000/svg"
   xmlns="http://www.w3.org/2000/svg"
   xmlns:sodipodi="http://sodipodi.sourceforge.net/DTD/sodipodi-0.dtd"
   xmlns:inkscape="http://www.inkscape.org/namespaces/inkscape"
   width="10.430157mm"
   height="10.215421mm"
   viewBox="0 0 10.430157 10.215421"
   version="1.1"
   id="svg2615"
   inkscape:version="0.92.3 (unknown)"
   sodipodi:docname="white-print.svg">
  <defs
     id="defs2609">
    <clipPath
       clipPathUnits="userSpaceOnUse"
       id="clipPath450">
      <path
         d="m 937.1402,581.3713 v 4.5101 c 0,0.6173 -0.5029,1.1186 -1.1228,1.1186 h -22.0348 c -0.6196,0 -1.1228,-0.501 -1.1228,-1.1186 v -4.5101 c -1.4843,-0.1751 -2.643,-1.4213 -2.643,-2.947 V 567.364 c 0,-1.645 1.3429,-2.9828 2.9941,-2.9828 h 3.2439 v -5.22 c 0,-0.6173 0.5028,-1.1183 1.1227,-1.1183 h 15.2186 c 0.6199,0 1.1228,0.501 1.1228,1.1183 v 5.22 h 2.8699 c 1.6512,0 2.9938,1.3378 2.9938,2.9828 v 11.0603 c 6e-4,1.5257 -1.1581,2.7719 -2.6424,2.947 z m -22.0349,3.3916 h 19.7894 v -3.3558 h -19.7894 z m 16.5687,-24.4831 h -12.9734 v 7.9536 h 12.9734 z m 5.8636,7.0842 c 0,-0.4116 -0.3353,-0.7457 -0.7485,-0.7457 h -2.8699 v 1.6151 h 0.5002 c 0.6196,0 1.1228,0.5013 1.1228,1.1186 0,0.6173 -0.5032,1.1186 -1.1228,1.1186 h -18.8388 c -0.6196,0 -1.1228,-0.501 -1.1228,-1.1186 0,-0.6176 0.5029,-1.1186 1.1228,-1.1186 h 0.8742 v -1.6151 h -3.2439 c -0.4132,0 -0.7485,0.3341 -0.7485,0.7457 v 11.0603 c 0,0.4116 0.3353,0.7457 0.7485,0.7457 h 23.5782 c 0.4132,0 0.7485,-0.3341 0.7485,-0.7457 z m -4.3773,10.0349 c -1.3129,0 -2.3819,-1.065 -2.3819,-2.3729 0,-1.308 1.069,-2.373 2.3819,-2.373 1.3132,0 2.3822,1.0647 2.3822,2.373 -3e-4,1.3082 -1.069,2.3729 -2.3822,2.3729 z m -5.869,0 c -1.3123,0 -2.3804,-1.065 -2.3804,-2.3729 0,-1.308 1.0681,-2.373 2.3804,-2.373 1.3129,0 2.3819,1.0647 2.3819,2.373 -3e-4,1.3082 -1.0699,2.3729 -2.3819,2.3729 z"
         id="path448"
         inkscape:connector-curvature="0"
         style="clip-rule:evenodd" />
    </clipPath>
    <clipPath
       clipPathUnits="userSpaceOnUse"
       id="clipPath456">
      <path
         d="M 0,0 H 1280 V 1712 H 0 Z"
         id="path454"
         inkscape:connector-curvature="0" />
    </clipPath>
    <clipPath
       clipPathUnits="userSpaceOnUse"
       id="clipPath298">
      <path
         d="m 881,597 h 179 V 552 H 881 Z"
         id="path296"
         inkscape:connector-curvature="0"
         style="clip-rule:evenodd" />
    </clipPath>
    <clipPath
       clipPathUnits="userSpaceOnUse"
       id="clipPath304">
      <path
         d="M 0,0 H 1280 V 1712 H 0 Z"
         id="path302"
         inkscape:connector-curvature="0" />
    </clipPath>
  </defs>
  <sodipodi:namedview
     id="base"
     pagecolor="#ffffff"
     bordercolor="#666666"
     borderopacity="1.0"
     inkscape:pageopacity="0.0"
     inkscape:pageshadow="2"
     inkscape:zoom="0.35"
     inkscape:cx="3.234748"
     inkscape:cy="-46.62861"
     inkscape:document-units="mm"
     inkscape:current-layer="layer1"
     showgrid="false"
     inkscape:window-width="1301"
     inkscape:window-height="744"
     inkscape:window-x="65"
     inkscape:window-y="24"
     inkscape:window-maximized="1" />
  <metadata
     id="metadata2612">
    <rdf:RDF>
      <cc:Work
         rdf:about="">
        <dc:format>image/svg+xml</dc:format>
        <dc:type
           rdf:resource="http://purl.org/dc/dcmitype/StillImage" />
        <dc:title></dc:title>
      </cc:Work>
    </rdf:RDF>
  </metadata>
  <g
     inkscape:label="Calque 1"
     inkscape:groupmode="layer"
     id="layer1"
     transform="translate(-104.97747,-126.28076)">
    <g
       transform="matrix(0.35277777,0,0,-0.35277777,-216.12678,333.36131)"
       id="g444">
      <g
         id="g446"
         clip-path="url(#clipPath450)">
        <g
           id="g452"
           clip-path="url(#clipPath456)">
          <path
             d="m 905.2168,553.0429 h 39.56574 v 38.95709 H 905.2168 Z"
             style="fill:#ffffff;fill-opacity:1;fill-rule:nonzero;stroke:none"
             id="path458"
             inkscape:connector-curvature="0" />
        </g>
      </g>
    </g>
  </g>
</svg>
